<?xml version="1.0" standalone="no"?>
<!DOCTYPE svg PUBLIC "-//W3C//DTD SVG 20010904//EN"
 "http://www.w3.org/TR/2001/REC-SVG-20010904/DTD/svg10.dtd">
<svg version="1.0" xmlns="http://www.w3.org/2000/svg"
 viewBox="0 0 2000 2000"
 preserveAspectRatio="xMidYMid meet">

<g transform="translate(0,2000) scale(0.1,-0.1)"
fill="#000000" stroke="none">
<path d="M9665 17153 c-1680 -66 -3257 -699 -4515 -1813 -185 -163 -521 -504
-676 -685 -954 -1115 -1536 -2454 -1698 -3905 -42 -377 -55 -977 -28 -1305 81
-970 302 -1794 702 -2622 620 -1280 1594 -2340 2825 -3073 303 -181 790 -413
1125 -538 1099 -408 2276 -546 3425 -401 1458 184 2814 801 3912 1782 1161
1037 1962 2445 2262 3978 37 191 85 519 107 739 22 219 30 840 15 1077 -81
1254 -461 2415 -1131 3464 -1173 1834 -3156 3051 -5325 3269 -340 34 -692 46
-1000 33z m555 -203 c955 -44 1838 -260 2685 -657 1039 -487 1967 -1245 2647
-2163 634 -857 1069 -1854 1262 -2895 36 -196 72 -449 93 -660 25 -258 25
-984 0 -1235 -83 -819 -267 -1524 -580 -2231 -405 -911 -1029 -1759 -1773
-2408 -207 -182 -274 -234 -279 -219 -2 7 -24 78 -49 158 -203 661 -470 1192
-826 1647 -101 128 -390 422 -510 517 -251 199 -551 356 -863 450 -164 50
-266 72 -501 111 -116 20 -247 44 -291 55 -220 56 -350 175 -427 392 -30 85
-58 225 -58 289 0 37 2 39 53 61 245 103 524 297 742 514 443 442 730 1054
810 1729 23 186 23 533 1 715 -80 661 -350 1252 -774 1692 -330 342 -706 564
-1141 672 -497 125 -1021 66 -1496 -169 -245 -121 -438 -259 -635 -455 -216
-214 -385 -450 -525 -735 -204 -414 -298 -798 -312 -1275 -15 -520 87 -992
312 -1445 158 -318 309 -529 541 -755 202 -197 392 -332 629 -446 l137 -67 -7
-61 c-41 -394 -185 -601 -470 -675 -44 -12 -187 -39 -317 -62 -337 -57 -537
-114 -779 -224 -466 -210 -885 -601 -1239 -1157 -118 -185 -311 -574 -408
-818 -70 -180 -163 -454 -219 -648 l-18 -63 -125 102 c-1393 1140 -2286 2745
-2520 4531 -142 1089 -18 2227 356 3267 134 370 370 871 564 1196 555 927
1279 1686 2165 2271 1083 714 2348 1117 3635 1157 209 7 299 6 510 -3z"/>
</g>
</svg>
