<svg width="340" height="60" xmlns="http://www.w3.org/2000/svg" preserveAspectRatio="xMidYMid meet">

 <g>
  <title>Layer 1</title>
  <g id="svg_1" fill="#000000" transform="translate(0, 500) scale(0.1, -0.1)">
   <path id="svg_2" d="m136,4958c-3,-7 -28,-123 -56,-258c-28,-135 -53,-253 -56,-262c-5,-16 4,-18 89,-18l95,0l18,88l18,88l88,12c149,18 215,74 225,191c7,71 -13,118 -60,146c-27,17 -55,20 -194,23c-129,3 -164,1 -167,-10zm255,-80c10,-38 -15,-152 -41,-188c-17,-23 -29,-30 -56,-30c-19,0 -34,2 -34,4c0,3 11,56 25,120c14,64 25,118 25,121c0,4 17,5 37,3c30,-2 38,-8 44,-30z"/>
   <path id="svg_3" d="m2030,4950c-47,-47 -15,-120 52,-120c77,0 129,79 80,123c-27,25 -106,23 -132,-3z"/>
   <path id="svg_4" d="m817,4775c-20,-14 -37,-30 -37,-35c0,-23 -19,-8 -22,18c-3,26 -5,27 -74,30l-72,3l-11,-48c-6,-26 -24,-110 -40,-185l-29,-138l88,0l89,0l11,58c32,153 47,206 61,215c27,17 48,0 55,-43l7,-41l46,3l46,3l18,84c20,97 18,101 -53,101c-32,0 -56,-7 -83,-25z"/>
   <path id="svg_5" d="m1130,4791c-109,-33 -171,-129 -156,-239c13,-94 72,-134 197,-135c171,0 258,73 259,216c0,123 -52,167 -195,166c-44,0 -91,-4 -105,-8zm126,-77c10,-38 -16,-171 -40,-207c-49,-72 -85,-28 -66,81c6,34 15,75 21,90c24,62 73,83 85,36z"/>
   <path id="svg_6" d="m2327,4784c-161,-50 -201,-282 -61,-349c66,-31 246,-21 296,17c10,7 20,32 24,56l7,42l-64,0c-62,0 -64,-1 -99,-42c-25,-29 -41,-40 -53,-35c-21,8 -31,48 -23,92l7,35l123,0l124,0l11,31c26,74 6,130 -55,155c-43,18 -175,17 -237,-2zm147,-67c3,-13 2,-36 -2,-52c-8,-27 -13,-30 -55,-33c-52,-3 -56,2 -31,51c24,48 34,57 59,57c15,0 25,-7 29,-23z"/>
   <path id="svg_7" d="m1505,4778c2,-7 16,-91 31,-185l27,-173l91,0l92,0l36,73c21,39 64,123 97,185l59,112l-44,0l-44,0l-61,-122c-70,-140 -69,-140 -89,20l-12,102l-94,0c-70,0 -92,-3 -89,-12z"/>
   <path id="svg_8" d="m1975,4768c-3,-13 -19,-88 -35,-168c-17,-80 -33,-153 -36,-162c-5,-16 4,-18 84,-18l89,0l22,103c12,56 30,139 40,185l19,82l-89,0c-84,0 -89,-1 -94,-22z"/>
   <path id="svg_9" d="m2675,4758c3,-18 16,-100 28,-183l23,-150l90,-3l91,-3l42,91c23,49 43,90 45,90c3,0 9,-33 16,-72c19,-118 9,-109 112,-106l90,3l83,180l83,180l-41,3c-22,2 -43,0 -47,-5c-4,-4 -26,-55 -50,-113c-23,-58 -46,-109 -50,-113c-4,-5 -13,46 -20,113l-13,121l-85,-3l-85,-3l-46,-112c-25,-61 -49,-114 -52,-118c-4,-3 -12,40 -18,97c-7,57 -13,110 -14,118c-2,12 -22,16 -95,18l-93,3l6,-33z"/>
  </g>
 </g>
</svg>